<svg width="189" height="60" viewBox="0 0 189 60" fill="none" xmlns="http://www.w3.org/2000/svg">
<path d="M42.7812 29.9999C42.7812 30.9999 43.592 31.8107 44.5921 31.8107H48.7106C50.8072 31.8107 52.8785 32.2913 54.7503 33.2357C55.3084 33.5173 55.9494 33.6586 56.627 33.6133C58.4223 33.4934 59.8777 32.0333 59.9923 30.2376C60.1269 28.1295 58.4573 26.3782 56.3782 26.3782C55.815 26.3782 55.2819 26.5067 54.8067 26.7362C52.8993 27.657 50.8279 28.1891 48.7099 28.1891H44.5921C43.5921 28.189 42.7812 28.9998 42.7812 29.9999Z" fill="#EF4734"/>
<path d="M18.2426 41.7571C17.658 41.1724 16.71 41.1724 16.1254 41.7571L13.7177 44.1648C12.492 45.3905 11.0002 46.3204 9.35383 46.8626C8.86293 47.0242 8.40567 47.3163 8.03606 47.7389C7.05661 48.8585 7.0593 50.563 8.04203 51.6798C9.19574 52.9909 11.1957 53.0387 12.4111 51.8232C12.7403 51.4941 12.9768 51.1072 13.1206 50.6953C13.6973 49.0419 14.5973 47.52 15.8355 46.2818L18.2427 43.8745C18.8273 43.2897 18.8273 42.3417 18.2426 41.7571Z" fill="#FF8D8B"/>
<path d="M39.9584 20.0416C40.5702 20.6534 41.5621 20.6534 42.1739 20.0416L44.6935 17.5222C45.9761 16.2396 47.5371 15.2666 49.2599 14.6992C49.7735 14.5299 50.2521 14.2243 50.6388 13.782C51.6638 12.6104 51.661 10.8268 50.6325 9.65822C49.4253 8.2863 47.3324 8.23626 46.0606 9.5081C45.716 9.85263 45.4687 10.2574 45.3182 10.6884C44.7147 12.4186 43.773 14.0111 42.4773 15.3069L39.9583 17.8259C39.3466 18.4379 39.3466 19.4298 39.9584 20.0416Z" fill="#FF8D8B"/>
<path d="M30 42.7812C28.9999 42.7812 28.1891 43.592 28.1891 44.5921V48.7106C28.1891 50.8072 27.7085 52.8785 26.7641 54.7503C26.4825 55.3083 26.3413 55.9493 26.3865 56.6269C26.5064 58.4222 27.9665 59.8777 29.7622 59.9923C31.8703 60.1268 33.6216 58.4573 33.6216 56.3781C33.6216 55.8149 33.4931 55.2818 33.2636 54.8067C32.3428 52.8993 31.8107 50.8279 31.8107 48.7099V44.5921C31.8109 43.5921 31 42.7812 30 42.7812Z" fill="#EF4734"/>
<path d="M33.2636 54.8068C32.3428 52.8995 31.8108 50.828 31.8108 48.71V44.5921C31.8108 43.5921 31.0001 42.7812 29.9999 42.7812C28.9997 42.7812 28.189 43.592 28.189 44.5921V48.71C28.189 50.828 28.721 52.8993 29.6419 54.8068C29.8713 55.282 29.9999 55.8151 29.9999 56.3783C29.9999 57.7177 29.2724 58.8863 28.1915 59.5129C28.6604 59.7856 29.1944 59.9562 29.7622 59.9925C31.8703 60.127 33.6217 58.4574 33.6217 56.3783C33.6217 55.8151 33.4931 55.282 33.2636 54.8068Z" fill="#FF8D8B"/>
<path d="M16.4851 22.5212C19.7521 22.5212 22.4006 19.8727 22.4006 16.6057C22.4006 13.3386 19.7521 10.6902 16.4851 10.6902C13.218 10.6902 10.5696 13.3386 10.5696 16.6057C10.5696 19.8727 13.218 22.5212 16.4851 22.5212Z" fill="#FF8D8B"/>
<path d="M16.4852 10.6902C15.8535 10.6902 15.2453 10.7903 14.6743 10.9737C17.0553 11.7387 18.7789 13.9705 18.7789 16.6057C18.7789 19.2409 17.0553 21.4727 14.6743 22.2377C15.2451 22.4211 15.8533 22.5212 16.4852 22.5212C19.7523 22.5212 22.4007 19.8728 22.4007 16.6057C22.4007 13.3386 19.7522 10.6902 16.4852 10.6902Z" fill="#EF4734"/>
<path d="M30 49.3158C40.6678 49.3158 49.3158 40.6678 49.3158 30C49.3158 19.3321 40.6678 10.6841 30 10.6841C19.3321 10.6841 10.6841 19.3321 10.6841 30C10.6841 40.6678 19.3321 49.3158 30 49.3158Z" fill="#FF5476"/>
<path d="M29.9999 10.6841C29.3891 10.6841 28.7853 10.7137 28.189 10.7693C38.0075 11.6824 45.6941 19.9429 45.6941 30C45.6941 40.057 38.0076 48.3175 28.1891 49.2306C28.7853 49.2861 29.3892 49.3158 30 49.3158C40.6679 49.3158 49.3158 40.6679 49.3158 30C49.3158 19.332 40.6678 10.6841 29.9999 10.6841Z" fill="#FFA2A2"/>
<path d="M37.2434 27.321C39.4103 27.321 41.167 25.5643 41.167 23.3974C41.167 21.2305 39.4103 19.4739 37.2434 19.4739C35.0765 19.4739 33.3198 21.2305 33.3198 23.3974C33.3198 25.5643 35.0765 27.321 37.2434 27.321Z" fill="#FFB7B6"/>
<path d="M37.2435 19.4739C36.5901 19.4739 35.9745 19.6345 35.4326 19.9171C36.6878 20.5716 37.5453 21.884 37.5453 23.3974C37.5453 24.9109 36.6878 26.2234 35.4326 26.8778C35.9745 27.1603 36.5901 27.321 37.2435 27.321C39.4104 27.321 41.1671 25.5643 41.1671 23.3974C41.1671 21.2305 39.4104 19.4739 37.2435 19.4739Z" fill="#F79190"/>
<path d="M23.0951 40.2015C24.562 40.2015 25.7511 39.0124 25.7511 37.5456C25.7511 36.0788 24.562 34.8896 23.0951 34.8896C21.6283 34.8896 20.4392 36.0788 20.4392 37.5456C20.4392 39.0124 21.6283 40.2015 23.0951 40.2015Z" fill="#FFB7B6"/>
<path d="M43.1402 47.9475C45.1404 47.9475 46.7619 46.326 46.7619 44.3258C46.7619 42.3256 45.1404 40.7041 43.1402 40.7041C41.14 40.7041 39.5186 42.3256 39.5186 44.3258C39.5186 46.326 41.14 47.9475 43.1402 47.9475Z" fill="#EF4734"/>
<path d="M43.1405 40.7041C42.4806 40.7041 41.8624 40.8815 41.3296 41.1898C42.4118 41.8161 43.1405 42.9855 43.1405 44.3259C43.1405 45.6663 42.4118 46.8356 41.3296 47.4619C41.8624 47.7703 42.4806 47.9477 43.1405 47.9477C45.1408 47.9477 46.7622 46.3262 46.7622 44.326C46.7622 42.3259 45.1408 40.7041 43.1405 40.7041Z" fill="#FF8D8B"/>
<path d="M17.2187 29.9999C17.2187 30.9999 16.408 31.8107 15.4078 31.8107H11.2893C9.19274 31.8107 7.12146 32.2913 5.24962 33.2357C4.69158 33.5173 4.05056 33.6586 3.37298 33.6133C1.57767 33.4934 0.122207 32.0333 0.00759784 30.2376C-0.126933 28.1295 1.54264 26.3782 3.62177 26.3782C4.18498 26.3782 4.71806 26.5067 5.19326 26.7362C7.1006 27.657 9.172 28.1891 11.29 28.1891H15.4079C16.4079 28.189 17.2187 28.9998 17.2187 29.9999Z" fill="#FF8D8B"/>
<path d="M29.9999 17.2187C30.9999 17.2187 31.8107 16.408 31.8107 15.4078V11.2893C31.8107 9.19274 32.2913 7.12146 33.2357 5.24962C33.5173 4.69158 33.6586 4.05056 33.6133 3.37298C33.4934 1.57767 32.0333 0.122207 30.2376 0.00759784C28.1295 -0.126933 26.3782 1.54264 26.3782 3.62177C26.3782 4.18498 26.5067 4.71806 26.7362 5.19326C27.657 7.1006 28.1891 9.172 28.1891 11.29V15.4079C28.189 16.4079 28.9998 17.2187 29.9999 17.2187Z" fill="#EF4734"/>
<path d="M33.6134 3.37297C33.4935 1.57766 32.0333 0.122197 30.2377 0.00758822C29.4877 -0.0403414 28.7835 0.141065 28.1865 0.487119C29.2007 1.07692 29.9095 2.14532 29.9916 3.37297C30.0368 4.05055 29.8956 4.69157 29.614 5.24961C28.6696 7.12144 28.189 9.19273 28.189 11.2893V15.4078C28.189 16.4078 28.9997 17.2187 29.9999 17.2187C31.0001 17.2187 31.8108 16.408 31.8108 15.4078V11.2893C31.8108 9.19273 32.2914 7.12144 33.2358 5.24961C33.5174 4.69157 33.6587 4.05055 33.6134 3.37297Z" fill="#FF8D8B"/>
<path d="M56.3804 26.3804C55.8176 26.3804 55.2848 26.5088 54.8099 26.7381C54.7258 26.7787 54.641 26.8176 54.5564 26.8566C55.7098 27.5169 56.465 28.7934 56.3728 30.2376C56.2939 31.4728 55.5803 32.5489 54.558 33.139C54.6232 33.1706 54.6887 33.2014 54.7534 33.234C55.3112 33.5153 55.9517 33.6565 56.629 33.6113C58.4232 33.4914 59.8779 32.0322 59.9924 30.2376C60.1269 28.1307 58.4583 26.3804 56.3804 26.3804Z" fill="#FF8D8B"/>
<path d="M82.847 36.644C83.5437 36.644 84.196 36.4983 84.804 36.207C85.412 35.9157 85.9503 35.4977 86.419 34.953L88.224 36.739C87.5907 37.4863 86.78 38.0817 85.792 38.525C84.8167 38.9683 83.8097 39.19 82.771 39.19C81.7703 39.19 80.833 39.0127 79.959 38.658C79.0977 38.3033 78.3503 37.822 77.717 37.214C77.0837 36.606 76.5833 35.884 76.216 35.048C75.8613 34.212 75.684 33.3127 75.684 32.35C75.684 31.3873 75.8677 30.488 76.235 29.652C76.6023 28.8033 77.1027 28.075 77.736 27.467C78.3693 26.859 79.1167 26.3777 79.978 26.023C80.852 25.6683 81.783 25.491 82.771 25.491C83.835 25.491 84.8673 25.719 85.868 26.175C86.8687 26.6183 87.6793 27.22 88.3 27.98L86.438 29.823C85.9693 29.2403 85.4183 28.797 84.785 28.493C84.1517 28.1763 83.4803 28.018 82.771 28.018C82.1757 28.018 81.612 28.132 81.08 28.36C80.5607 28.5753 80.111 28.8793 79.731 29.272C79.351 29.652 79.0533 30.108 78.838 30.64C78.6227 31.1593 78.515 31.7293 78.515 32.35C78.515 32.958 78.6227 33.528 78.838 34.06C79.066 34.5793 79.37 35.029 79.75 35.409C80.1427 35.789 80.5987 36.093 81.118 36.321C81.65 36.5363 82.2263 36.644 82.847 36.644ZM103.03 32.35C103.03 33.3 102.846 34.1993 102.479 35.048C102.111 35.884 101.611 36.6123 100.978 37.233C100.357 37.841 99.6159 38.3223 98.7546 38.677C97.8933 39.0317 96.9686 39.209 95.9806 39.209C95.0053 39.209 94.0869 39.0317 93.2256 38.677C92.3643 38.3223 91.6169 37.841 90.9836 37.233C90.3629 36.6123 89.8689 35.884 89.5016 35.048C89.1343 34.1993 88.9506 33.3 88.9506 32.35C88.9506 31.4 89.1343 30.507 89.5016 29.671C89.8689 28.8223 90.3629 28.094 90.9836 27.486C91.6169 26.8653 92.3643 26.3777 93.2256 26.023C94.0869 25.6683 95.0053 25.491 95.9806 25.491C96.9686 25.491 97.8933 25.6683 98.7546 26.023C99.6159 26.3777 100.357 26.8653 100.978 27.486C101.611 28.094 102.111 28.8223 102.479 29.671C102.846 30.507 103.03 31.4 103.03 32.35ZM100.199 32.35C100.199 31.7293 100.091 31.1593 99.8756 30.64C99.6603 30.108 99.3626 29.652 98.9826 29.272C98.6153 28.8793 98.1719 28.5753 97.6526 28.36C97.1333 28.132 96.5759 28.018 95.9806 28.018C95.3853 28.018 94.8279 28.132 94.3086 28.36C93.8019 28.5753 93.3586 28.8793 92.9786 29.272C92.6113 29.652 92.3199 30.108 92.1046 30.64C91.8893 31.1593 91.7816 31.7293 91.7816 32.35C91.7816 32.958 91.8893 33.528 92.1046 34.06C92.3199 34.592 92.6113 35.0543 92.9786 35.447C93.3586 35.827 93.8019 36.131 94.3086 36.359C94.8279 36.5743 95.3853 36.682 95.9806 36.682C96.5759 36.682 97.1333 36.5743 97.6526 36.359C98.1719 36.131 98.6153 35.827 98.9826 35.447C99.3626 35.0543 99.6603 34.592 99.8756 34.06C100.091 33.528 100.199 32.958 100.199 32.35ZM108.3 39L102.904 25.7H105.887L109.953 36.207L114.114 25.7H116.964L111.492 39H108.3ZM118.093 39V25.7H120.848V39H118.093ZM123.27 39V25.7H128.381C129.369 25.7 130.294 25.871 131.155 26.213C132.017 26.555 132.758 27.0237 133.378 27.619C134.012 28.2143 134.506 28.9237 134.86 29.747C135.228 30.5703 135.411 31.4507 135.411 32.388C135.411 33.3127 135.228 34.1803 134.86 34.991C134.506 35.8017 134.012 36.5047 133.378 37.1C132.758 37.6827 132.017 38.145 131.155 38.487C130.294 38.829 129.369 39 128.381 39H123.27ZM128.362 28.151H126.025V36.549H128.362C128.945 36.549 129.49 36.4413 129.996 36.226C130.516 36.0107 130.965 35.7193 131.345 35.352C131.725 34.972 132.023 34.5287 132.238 34.022C132.454 33.5153 132.561 32.9707 132.561 32.388C132.561 31.7927 132.454 31.2353 132.238 30.716C132.023 30.1967 131.725 29.747 131.345 29.367C130.965 28.987 130.516 28.6893 129.996 28.474C129.49 28.2587 128.945 28.151 128.362 28.151ZM140.702 32.483H147.846V34.687H140.702V32.483ZM158.071 25.7V39H155.468V28.341L152.865 29.405V27.144L156.418 25.7H158.071ZM164.676 25.472C165.55 25.472 166.348 25.6367 167.07 25.966C167.792 26.2827 168.406 26.7323 168.913 27.315C169.432 27.885 169.831 28.5753 170.11 29.386C170.401 30.1967 170.547 31.0897 170.547 32.065C170.547 33.129 170.389 34.1043 170.072 34.991C169.755 35.865 169.312 36.6123 168.742 37.233C168.172 37.8537 167.482 38.335 166.671 38.677C165.86 39.019 164.967 39.19 163.992 39.19C163.27 39.19 162.554 39.076 161.845 38.848C161.136 38.6073 160.54 38.2907 160.059 37.898L161.541 36.036C161.934 36.34 162.345 36.5617 162.776 36.701C163.207 36.8403 163.675 36.91 164.182 36.91C165.322 36.91 166.215 36.5237 166.861 35.751C167.52 34.9657 167.881 33.8573 167.944 32.426C167.513 32.9073 166.981 33.2873 166.348 33.566C165.715 33.832 165.043 33.965 164.334 33.965C163.663 33.965 163.042 33.8637 162.472 33.661C161.902 33.4583 161.408 33.1797 160.99 32.825C160.585 32.4577 160.268 32.027 160.04 31.533C159.812 31.0263 159.698 30.4753 159.698 29.88C159.698 29.2467 159.825 28.664 160.078 28.132C160.331 27.5873 160.673 27.1187 161.104 26.726C161.547 26.3333 162.073 26.0293 162.681 25.814C163.302 25.586 163.967 25.472 164.676 25.472ZM164.752 31.913C165.347 31.913 165.898 31.7863 166.405 31.533C166.924 31.2797 167.387 30.9187 167.792 30.45C167.589 29.614 167.222 28.9427 166.69 28.436C166.158 27.9293 165.525 27.676 164.79 27.676C164.068 27.676 163.46 27.8787 162.966 28.284C162.485 28.6893 162.244 29.2023 162.244 29.823C162.244 30.4437 162.478 30.9503 162.947 31.343C163.416 31.723 164.017 31.913 164.752 31.913Z" fill="#035755"/>
</svg>
